<?xml version="1.0" encoding="utf-8"?>
<!-- Generator: Adobe Illustrator 23.0.1, SVG Export Plug-In . SVG Version: 6.00 Build 0)  -->
<svg version="1.1" id="レイヤー_1" xmlns="http://www.w3.org/2000/svg" xmlns:xlink="http://www.w3.org/1999/xlink" x="0px"
	 y="0px" viewBox="0 0 27.13 27.13" style="enable-background:new 0 0 27.13 27.13;" xml:space="preserve">
<style type="text/css">
	.st0{fill-rule:evenodd;clip-rule:evenodd;fill:#666666;}
</style>
<path class="st0" d="M25.53,9.57l-7.75-1.07l-3.31-7.34c-0.19-0.43-0.6-0.65-1-0.65c-0.4,0-0.8,0.22-1,0.65l-3.3,7.34L1.43,9.57
	c-0.9,0.12-1.27,1.23-0.62,1.87l5.71,5.7l-1.43,8.08c-0.13,0.72,0.44,1.29,1.08,1.29c0.18,0,0.37-0.05,0.54-0.15l6.77-3.89
	l6.77,3.89c0.18,0.1,0.36,0.15,0.54,0.15c0.64,0,1.21-0.58,1.08-1.29l-1.43-8.08l5.71-5.7C26.8,10.8,26.43,9.69,25.53,9.57z
	 M19.03,15.73l-0.74,0.74l0.18,1.03l1.1,6.18l-5.09-2.93l-1-0.57l-1,0.57l-5.09,2.93l1.1-6.18l0.18-1.03l-0.74-0.74L3.5,11.3
	l5.95-0.82l1.1-0.15L11,9.33l2.48-5.51l2.48,5.51l0.46,1.01l1.1,0.15l5.95,0.82L19.03,15.73z"/>
</svg>
