<svg version="1.1" id="レイヤー_1" xmlns="http://www.w3.org/2000/svg" xmlns:xlink="http://www.w3.org/1999/xlink" x="0px"
	 y="0px" width="26.93px" height="28.83px" viewBox="0 0 26.93 28.83" style="enable-background:new 0 0 26.93 28.83;"
	 xml:space="preserve">
<style type="text/css">
	.st0{fill-rule:evenodd;clip-rule:evenodd;fill:#666666;}
</style>
<path class="st0" d="M9.52,24.43c-1.1,0-2,0.9-2,2s0.9,2,2,2s2-0.9,2-2S10.63,24.43,9.52,24.43"/>
<path class="st0" d="M23.52,24.43c-1.1,0-2,0.9-2,2s0.9,2,2,2s2-0.9,2-2S24.63,24.43,23.52,24.43"/>
<path class="st0" d="M9.25,19.58L6.77,2.99C6.54,1.51,5.3,0.43,3.8,0.43H0.52v2H3.8c0.5,0,0.92,0.36,0.99,0.85l2.49,16.59
	c0.22,1.48,1.47,2.55,2.97,2.55h15.28v-2H10.24C9.74,20.43,9.33,20.08,9.25,19.58"/>
<path class="st0" d="M8.86,3.43l0.3,2h15.21l-0.58,8.14c-0.07,1.04-0.95,1.86-1.99,1.86H10.66l0.3,2H21.8c2.1,0,3.84-1.62,3.99-3.72
	l0.73-10.28H8.86z"/>
</svg>
