<svg version="1.1" id="レイヤー_1" xmlns="http://www.w3.org/2000/svg" xmlns:xlink="http://www.w3.org/1999/xlink" x="0px"
	 y="0px" viewBox="0 0 28.96 24.98" style="enable-background:new 0 0 28.96 24.98;" xml:space="preserve">
<style type="text/css">
	.st0{fill:#666666;}
</style>
<g>
	<g>
		<path class="st0" d="M28.5,10.46v-8c0-1.1-0.9-2-2-2h-24c-1.1,0-2,0.9-2,2v8c1.1,0,2,0.9,2,2s-0.9,2-2,2v8c0,1.1,0.9,2,2,2h24
			c1.1,0,2-0.9,2-2v-8c-1.1,0-2-0.9-2-2S27.4,10.46,28.5,10.46z M26.5,8.99c-1.91,1.1-2.57,3.55-1.46,5.46
			c0.35,0.61,0.86,1.11,1.46,1.46v6.54h-24v-6.54c1.91-1.1,2.57-3.55,1.46-5.46C3.61,9.85,3.11,9.35,2.5,8.99V2.46h24V8.99z"/>
		<rect x="8.5" y="10.46" class="st0" width="2" height="4"/>
		<rect x="8.5" y="4.46" class="st0" width="2" height="4"/>
		<rect x="8.5" y="16.46" class="st0" width="2" height="4"/>
	</g>
</g>
</svg>
