<svg id="Layer_1" data-name="Layer 1" xmlns="http://www.w3.org/2000/svg" viewBox="0 0 36 47"><defs><style>.cls-1{fill:gray;}.cls-2{fill:#262626;}.cls-3{fill:#fff;}.cls-4{fill:#404040;}</style></defs><title>04Diamond_l</title><path class="cls-1" d="M18,12A17,17,0,0,0,2.08,34.92L23.92,13.08A16.85,16.85,0,0,0,18,12Z"/><path class="cls-2" d="M23.92,13.08,2.08,34.92A17,17,0,1,0,23.92,13.08Z"/><path d="M26.11,13l7.34-3.67a1,1,0,0,0,.55-.9V0H24V12.05a17.67,17.67,0,0,0-12,0V0H2V8.38a1,1,0,0,0,.55.9L9.89,13a18,18,0,1,0,16.22,0ZM18,44A15,15,0,1,1,33,29,15,15,0,0,1,18,44Z"/><path class="cls-3" d="M18.55,19.61c4.94,0,8.52,4,8.52,9.43s-3.48,9.46-8.52,9.46H12.38V19.61ZM16,35.14h2.57c2.78,0,4.68-2.47,4.68-6.1S21.33,23,18.55,23H16Z"/><path class="cls-4" d="M18,11a17.81,17.81,0,0,1,6,1.05V0H12V12.05A17.81,17.81,0,0,1,18,11Z"/></svg>