<svg id="Layer_1" data-name="Layer 1" xmlns="http://www.w3.org/2000/svg" viewBox="0 0 36 47"><defs><style>.cls-1{fill:#fbf4ce;}.cls-2{fill:#f0d23c;}.cls-3{fill:#99740e;}.cls-4{fill:#ad903e;}</style></defs><title>02Gold_l</title><path class="cls-1" d="M18,12A17,17,0,0,0,2.08,34.92L23.92,13.08A16.85,16.85,0,0,0,18,12Z"/><path class="cls-2" d="M23.92,13.08,2.08,34.92A17,17,0,1,0,23.92,13.08Z"/><path class="cls-3" d="M26.11,13l7.34-3.67a1,1,0,0,0,.55-.9V0H24V12.05a17.67,17.67,0,0,0-12,0V0H2V8.38a1,1,0,0,0,.55.9L9.89,13a18,18,0,1,0,16.22,0ZM18,44A15,15,0,1,1,33,29,15,15,0,0,1,18,44Z"/><path class="cls-3" d="M18.13,31.68h3.68v2.45a4.69,4.69,0,0,1-3.51,1.39c-3,0-5.09-2.73-5.09-6.45s2-6.48,4.66-6.48a4.57,4.57,0,0,1,4.13,3l3.07-1.8a8,8,0,0,0-7.18-4.6c-4.77,0-8.52,4.34-8.52,9.86,0,5.71,3.7,9.79,8.91,9.79a9.4,9.4,0,0,0,7-2.92V28.32H18.13Z"/><path class="cls-4" d="M18,11a17.81,17.81,0,0,1,6,1.05V0H12V12.05A17.81,17.81,0,0,1,18,11Z"/></svg>