<svg version="1.1" id="レイヤー_1" xmlns="http://www.w3.org/2000/svg" xmlns:xlink="http://www.w3.org/1999/xlink" x="0px"
	 y="0px" viewBox="0 0 29.22 29.09" style="enable-background:new 0 0 29.22 29.09;" xml:space="preserve">
<style type="text/css">
	.st0{fill-rule:evenodd;clip-rule:evenodd;fill:#666666;}
</style>
<path class="st0" d="M14.57,19.52c-0.83,0-1.5,0.67-1.5,1.5s0.67,1.5,1.5,1.5s1.5-0.67,1.5-1.5S15.39,19.52,14.57,19.52"/>
<path class="st0" d="M14.57,0.52c-7.73,0-14,6.27-14,14s6.27,14,14,14s14-6.27,14-14S22.3,0.52,14.57,0.52 M14.57,26.52
	c-6.62,0-12-5.38-12-12s5.38-12,12-12s12,5.38,12,12S21.18,26.52,14.57,26.52"/>
<path class="st0" d="M14.57,6.52c-2.49,0-4.5,2.01-4.5,4.5v0.5h2v-0.5c0-1.38,1.12-2.5,2.5-2.5s2.5,1.12,2.5,2.5s-1.12,2.5-2.5,2.5
	c-0.55,0-1,0.45-1,1v3h2V15.4c2-0.46,3.5-2.24,3.5-4.38C19.07,8.54,17.05,6.52,14.57,6.52"/>
</svg>
