<svg xmlns="http://www.w3.org/2000/svg" width="176" height="176" viewBox="0 0 176 176"><circle cx="88" cy="88" r="88" fill="#999"/><path d="M112.5 54.144c-3.188 0-6.248-.028-9.309.014-1.252.018-2.52.092-3.746.315-2.392.437-3.636 1.754-3.701 4.188-.107 4.003-.029 8.012-.029 12.184h15.51c-.225 2.158-.425 4.138-.639 6.116-.361 3.359-.76 6.715-1.079 10.078-.082.862-.401 1.107-1.245 1.098-3.773-.041-7.547-.017-11.32-.017h-1.396v51.082H72.457V88.12h-6.589c-2.368 0-2.367 0-2.367-2.355V72.321 70.93h8.948c0-.568-.007-1.021.001-1.474.083-4.674.008-9.357.305-14.019.268-4.2 1.461-8.183 4.174-11.562 2.799-3.487 6.56-5.342 10.842-6.104 2.616-.466 5.301-.676 7.962-.732 5.225-.109 10.455-.034 15.684-.03.346 0 .691.043 1.084.071l-.001 17.064z" fill-rule="evenodd" clip-rule="evenodd" fill="#fff"/></svg>