<?xml version="1.0" encoding="utf-8"?>
<!-- Generator: Adobe Illustrator 22.1.0, SVG Export Plug-In . SVG Version: 6.00 Build 0)  -->
<svg version="1.1" id="レイヤー_1" xmlns="http://www.w3.org/2000/svg" xmlns:xlink="http://www.w3.org/1999/xlink" x="0px"
	 y="0px" viewBox="0 0 56 56" style="enable-background:new 0 0 56 56;" xml:space="preserve">
<style type="text/css">
	.st0{display:none;}
	.st1{fill:#999999;}
</style>
<g id="Layer_1" class="st0">
	
		<image style="display:inline;overflow:visible;enable-background:new    ;" width="62" height="72" xlink:href="5E1BCA9374528258.png"  transform="matrix(1.1759 0 0 1.1759 -10.6667 -16)">
	</image>
</g>
<g id="Layer_2">
</g>
<g id="Layer_3">
</g>
<g id="Layer_4">
</g>
<g id="Layer_5">
</g>
<g id="Layer_6">
</g>
<g id="Layer_7">
</g>
<g id="Layer_8">
</g>
<g id="Layer_9">
</g>
<g id="Layer_10">
	<path class="st1" d="M54,31.3c1.2-2.3,1.8-4.8,1.8-7.4c0-3.6-1.2-7-3.3-10c-1.7-3-4.1-5.2-6.8-6.2C42.1,4.4,36,2.2,29,2.2
		c-0.5,0-1,0-1.5,0s-1,0-1.5,0c-6.7,0-12.7,2-16.3,5.1c-5.2,1.9-9,8.2-9,15.8c0,5.2,1.8,9.8,4.6,12.8c1.9,2.5,4.4,4.3,7.2,5.3
		c2.4,1.2,5.2,2,8.2,2.4c2.6,0.6,5.3,1,8.2,1c1.4,0,2.8-0.1,4.1-0.2c0.4,0.1,0.9,0.2,1.3,0.2c5.1,3.2,10.2,6.5,15.3,9.7
		c-0.9-4.3-1.8-8.6-2.6-13C50.7,38.8,53.3,35.1,54,31.3z"/>
</g>
</svg>
