<svg xmlns="http://www.w3.org/2000/svg" width="140" height="140" viewBox="0 0 140 140"><path d="M136.125 135.688L135 140h-11.92l-.18-.109C56.266 137.277 2.722 83.734.11 17.1L0 16.92V5l2.172-1.781L4.922 0h29.495c2.199 0 .701 2.469 2.599 2.469 0 1.497 2.669.728 2.984 2.531 1.85 10.593 7.206 23.819 9.518 28.812.514 1.11-1.486 2.392-1.486 2.392l.41 3.424L27.29 60.71a128.587 128.587 0 0 0 52 52.001l21.176-21.246 3.145 3.176s1.654-4.597 2.586-4.134c4.887 2.427 18.121 8.616 28.805 9.493.641.053 1.959 2.313 2.547 2.313 0 .398 2.453 2.273 2.453 2.688v30l-3.877.687z" fill-rule="evenodd" clip-rule="evenodd" fill="#999"/><circle cx="5" cy="5" r="5" fill-rule="evenodd" clip-rule="evenodd" fill="#999"/><circle cx="35" cy="5" r="5" fill-rule="evenodd" clip-rule="evenodd" fill="#999"/><circle cx="45" cy="36" r="5" fill-rule="evenodd" clip-rule="evenodd" fill="#999"/><circle cx="104" cy="95" r="5" fill-rule="evenodd" clip-rule="evenodd" fill="#999"/><circle cx="135" cy="135" r="5" fill-rule="evenodd" clip-rule="evenodd" fill="#999"/><circle cx="135" cy="105" r="5" fill-rule="evenodd" clip-rule="evenodd" fill="#999"/></svg>