<svg xmlns="http://www.w3.org/2000/svg" width="176" height="176" viewBox="0 0 176 176"><circle cx="88" cy="88" r="88" fill="#999"/><path d="M35.802 121.537c11.866 1.053 22.34-1.865 31.865-9.049-10.037-.865-16.704-5.834-20.337-15.123 3.272.539 6.355.523 9.438-.416-4.914-1.295-9.044-3.787-12.22-7.746-3.19-3.98-4.743-8.537-4.786-13.788 3.057 1.538 6.103 2.552 9.543 2.618-9.649-8.038-11.773-17.616-6.588-29.062 11.906 13.962 26.747 21.563 44.971 22.84-.114-.829-.204-1.461-.286-2.093-1.322-10.126 4.283-19.767 13.798-23.213 8.472-3.068 16.156-1.418 22.823 4.666.638.58 1.165.716 1.95.529 4.152-.988 8.107-2.47 11.822-4.577.188-.105.383-.197.742-.383-.803 2.545-1.913 4.773-3.573 6.635-1.657 1.856-3.538 3.513-5.278 5.216 3.852-.466 7.718-1.563 11.712-3.253-.301.477-.442.728-.608.96-2.637 3.685-5.75 6.905-9.377 9.62-.48.359-.717.7-.709 1.363.211 18.161-6.004 33.805-18.762 46.709-8.828 8.932-19.633 14.223-32.019 16.268-10.196 1.684-20.243 1.092-30.105-2.078-4.709-1.514-9.162-3.588-13.378-6.174-.147-.088-.278-.203-.638-.469z" fill-rule="evenodd" clip-rule="evenodd" fill="#fff"/></svg>