<?xml version="1.0" encoding="utf-8"?>
<!-- Generator: Adobe Illustrator 23.0.1, SVG Export Plug-In . SVG Version: 6.00 Build 0)  -->
<svg version="1.1" id="sozai" xmlns="http://www.w3.org/2000/svg" xmlns:xlink="http://www.w3.org/1999/xlink" x="0px" y="0px"
	 viewBox="0 0 28.61 28.57" style="enable-background:new 0 0 28.61 28.57;" xml:space="preserve">
<style type="text/css">
	.st0{fill:#666666;}
	.st1{fill:none;stroke:#666666;stroke-width:2;stroke-miterlimit:20;}
</style>
<g>
	<g>
		<path class="st0" d="M26.36,2.23v24h-10v-24H26.36 M26.36,0.23h-10c-1.1,0-2,0.9-2,2v24c0,1.1,0.9,2,2,2h10c1.1,0,2-0.9,2-2v-24
			C28.36,1.12,27.46,0.23,26.36,0.23L26.36,0.23z"/>
	</g>
	<line class="st1" x1="14.36" y1="7.23" x2="28.36" y2="7.23"/>
	<line class="st1" x1="21.36" y1="28.23" x2="21.36" y2="0.23"/>
	<line class="st1" x1="14.36" y1="21.49" x2="28.36" y2="21.49"/>
</g>
<g>
	<g>
		<path class="st0" d="M8.53,2.12l3.86,1.03L6.18,26.34L2.32,25.3L8.53,2.12 M8.53,0.12c-0.88,0-1.69,0.59-1.93,1.48L0.39,24.78
			c-0.29,1.07,0.35,2.16,1.41,2.45l3.86,1.04c0.17,0.05,0.35,0.07,0.52,0.07c0.88,0,1.69-0.59,1.93-1.48l6.21-23.18
			c0.29-1.07-0.35-2.16-1.41-2.45L9.05,0.19C8.88,0.14,8.7,0.12,8.53,0.12L8.53,0.12z"/>
	</g>
	<line class="st1" x1="5.31" y1="6.43" x2="13.03" y2="8.5"/>
	<line class="st1" x1="1.61" y1="20.21" x2="9.34" y2="22.28"/>
</g>
</svg>
