<svg version="1.1" id="レイヤー_1" xmlns="http://www.w3.org/2000/svg" xmlns:xlink="http://www.w3.org/1999/xlink" x="0px"
	 y="0px" viewBox="0 0 29.22 29.48" style="enable-background:new 0 0 29.22 29.48;" xml:space="preserve">
<style type="text/css">
	.st0{fill:#666666;}
	.st1{fill:none;}
</style>
<g>
	<g>
		<path class="st0" d="M27.73,22.81c-1.27-1.17-2.74-2.1-4.34-2.74c-0.25-0.1-0.37-0.39-0.27-0.65c0.02-0.05,0.06-0.1,0.1-0.15
			c1.21-1.31,1.49-2.23,1.49-4.97c0-3.5-2.01-5.5-5.02-5.5c-3.01,0-5.02,2-5.02,5.5c0,2.66,0.29,3.64,1.5,4.97
			c0.18,0.2,0.17,0.51-0.03,0.7c-0.04,0.04-0.09,0.07-0.15,0.09c-1.6,0.64-3.08,1.57-4.34,2.74c-0.65,0.65-0.88,2.29-0.96,3.88
			c-0.06,1.11,0.79,2.05,1.89,2.11c0.04,0,0.07,0,0.11,0h13.99c1.11,0,2.01-0.9,2.01-2.01c0-0.04,0-0.07,0-0.11
			C28.61,25.1,28.38,23.45,27.73,22.81z M12.7,26.79c-0.02-0.89,0.12-1.78,0.42-2.62c1.07-0.96,2.31-1.73,3.65-2.26
			c1.27-0.53,1.88-1.98,1.35-3.26c-0.11-0.27-0.27-0.52-0.46-0.73c-0.73-0.8-0.98-1.2-0.98-3.62c0-1.6,0.52-3.5,3.02-3.5
			s3.02,1.9,3.02,3.5c0,2.46-0.22,2.8-0.97,3.61c-0.93,1.01-0.87,2.59,0.14,3.52c0.22,0.2,0.47,0.36,0.74,0.47
			c1.34,0.53,2.57,1.3,3.64,2.26c0.3,0.84,0.44,1.74,0.42,2.63L12.7,26.79z"/>
		<rect x="4.7" y="5.81" class="st0" width="11" height="2"/>
		<rect x="4.7" y="9.81" class="st0" width="8" height="2"/>
		<rect x="4.7" y="13.81" class="st0" width="5" height="2"/>
		<path class="st0" d="M2.7,2.81h16v4h2v-4c0-1.1-0.9-2-2-2h-16c-1.1,0-2,0.9-2,2v18c0,1.1,0.9,2,2,2h6v-2h-6V2.81z"/>
	</g>
	<rect x="-1.3" y="-1.19" class="st1" width="32" height="32"/>
</g>
</svg>
