<svg version="1.1" id="レイヤー_1" xmlns="http://www.w3.org/2000/svg" xmlns:xlink="http://www.w3.org/1999/xlink" x="0px"
	 y="0px" viewBox="0 0 26.66 27.54" style="enable-background:new 0 0 26.66 27.54;" xml:space="preserve">
<style type="text/css">
	.st0{fill-rule:evenodd;clip-rule:evenodd;fill:#666666;}
	.st1{enable-background:new    ;}
	.st2{clip-path:url(#SVGID_2_);}
	.st3{clip-path:url(#SVGID_4_);}
	.st4{clip-path:url(#SVGID_6_);fill:#666666;}
	.st5{clip-path:url(#SVGID_8_);}
	.st6{clip-path:url(#SVGID_10_);fill:#666666;}
</style>
<path class="st0" d="M24.42,0.24c1.1,0,2,0.9,2,2v18c0,1.1-0.9,2-2,2h-6l-5,5l-5-5h-6c-1.1,0-2-0.9-2-2v-18c0-1.1,0.9-2,2-2H24.42z
	 M2.42,20.24h6.83l4.17,4.17l4.17-4.17h6.83v-18h-22V20.24z"/>
<g class="st1">
	<g>
		<defs>
			<rect id="SVGID_1_" x="11.42" y="4.24" width="4" height="14"/>
		</defs>
		<clipPath id="SVGID_2_">
			<use xlink:href="#SVGID_1_"  style="overflow:visible;"/>
		</clipPath>
		<g class="st2">
			<defs>
				<rect id="SVGID_3_" x="12.42" y="4.24" width="2" height="9"/>
			</defs>
			<clipPath id="SVGID_4_">
				<use xlink:href="#SVGID_3_"  style="overflow:visible;"/>
			</clipPath>
			<g class="st3">
				<defs>
					<rect id="SVGID_5_" x="11.42" y="4.24" width="4" height="14"/>
				</defs>
				<clipPath id="SVGID_6_">
					<use xlink:href="#SVGID_5_"  style="overflow:visible;"/>
				</clipPath>
				<rect x="7.42" y="-0.76" class="st4" width="12" height="19"/>
			</g>
		</g>
		<g class="st2">
			<defs>
				<path id="SVGID_7_" d="M13.42,15.24c-0.83,0-1.5,0.67-1.5,1.5s0.67,1.5,1.5,1.5s1.5-0.67,1.5-1.5S14.25,15.24,13.42,15.24"/>
			</defs>
			<clipPath id="SVGID_8_">
				<use xlink:href="#SVGID_7_"  style="overflow:visible;"/>
			</clipPath>
			<g class="st5">
				<defs>
					<rect id="SVGID_9_" x="11.42" y="4.24" width="4" height="14"/>
				</defs>
				<clipPath id="SVGID_10_">
					<use xlink:href="#SVGID_9_"  style="overflow:visible;"/>
				</clipPath>
				<rect x="6.92" y="10.24" class="st6" width="13" height="13"/>
			</g>
		</g>
	</g>
</g>
</svg>
