<svg id="Layer_1" data-name="Layer 1" xmlns="http://www.w3.org/2000/svg" viewBox="0 0 36 47"><defs><style>.cls-1{fill:#99b7dd;}.cls-2{fill:#004baa;}.cls-3{fill:#2f8cc2;}.cls-4{fill:#fff;}.cls-5{fill:#2382b4;}.cls-6{fill:#4f9bc3;}</style></defs><title>03Platium_l</title><path class="cls-1" d="M18,12A17,17,0,0,0,2.08,34.92L23.92,13.08A16.85,16.85,0,0,0,18,12Z"/><path class="cls-2" d="M23.92,13.08,2.08,34.92A17,17,0,1,0,23.92,13.08Z"/><path class="cls-3" d="M18,13A16,16,0,1,1,2,29,16,16,0,0,1,18,13m0-2A18,18,0,1,0,36,29,18,18,0,0,0,18,11Z"/><path class="cls-4" d="M19.35,19.61a6.4,6.4,0,1,1,0,12.79H16.11v6.1h-3.6V19.61ZM19.11,29A3,3,0,0,0,22,26a2.89,2.89,0,0,0-2.9-3h-3V29Z"/><path class="cls-5" d="M26.11,13l7.34-3.67a1,1,0,0,0,.55-.9V0H24V12.05a17.67,17.67,0,0,0-12,0V0H2V8.38a1,1,0,0,0,.55.9L9.89,13a18,18,0,1,0,16.22,0ZM18,44A15,15,0,1,1,33,29,15,15,0,0,1,18,44Z"/><path class="cls-6" d="M18,11a17.81,17.81,0,0,1,6,1.05V0H12V12.05A17.81,17.81,0,0,1,18,11Z"/></svg>