<svg version="1.1" id="レイヤー_1" xmlns="http://www.w3.org/2000/svg" xmlns:xlink="http://www.w3.org/1999/xlink" x="0px"
	 y="0px" viewBox="0 0 22.83 28.63" style="enable-background:new 0 0 22.83 28.63;" xml:space="preserve">
<style type="text/css">
	.st0{fill-rule:evenodd;clip-rule:evenodd;fill:#666666;}
</style>
<rect x="9.37" y="10.37" class="st0" width="8" height="2"/>
<rect x="5.37" y="10.37" class="st0" width="2" height="2"/>
<rect x="9.37" y="15.37" class="st0" width="8" height="2"/>
<rect x="5.37" y="15.37" class="st0" width="2" height="2"/>
<rect x="9.37" y="20.37" class="st0" width="8" height="2"/>
<rect x="5.37" y="20.37" class="st0" width="2" height="2"/>
<path class="st0" d="M16.37,8.37h6l-8-8v6C14.37,7.47,15.27,8.37,16.37,8.37"/>
<path class="st0" d="M20.37,26.37h-18v-24h10v-2h-10c-1.1,0-2,0.9-2,2v24c0,1.1,0.9,2,2,2h18c1.1,0,2-0.9,2-2v-16h-2V26.37z"/>
</svg>
