<svg version="1.1" id="レイヤー_1" xmlns="http://www.w3.org/2000/svg" xmlns:xlink="http://www.w3.org/1999/xlink" x="0px"
	 y="0px" viewBox="0 0 48 42" style="enable-background:new 0 0 48 42;" xml:space="preserve">
<style type="text/css">
	.st0{fill-rule:evenodd;clip-rule:evenodd;fill:#fff;}
</style>
<path class="st0" d="M22.05,8.23c-5.42,0-9.82,4.4-9.82,9.82s4.4,9.82,9.82,9.82s9.82-4.4,9.82-9.82S27.47,8.23,22.05,8.23
	 M22.05,26.09c-4.43,0-8.04-3.61-8.04-8.04c0-4.43,3.6-8.04,8.04-8.04c4.43,0,8.04,3.6,8.04,8.04
	C30.08,22.48,26.48,26.09,22.05,26.09"/>
<path class="st0" d="M30.85,25.59c-0.39,0.45-0.81,0.87-1.26,1.26l6.37,6.37l1.26-1.26L30.85,25.59z"/>
</svg>
