<svg id="Layer_1" data-name="Layer 1" xmlns="http://www.w3.org/2000/svg" viewBox="0 0 36 47"><defs><style>.cls-1{fill:#efefef;}.cls-2{fill:#c9c9c9;}.cls-3{fill:#646464;}.cls-4{fill:#838383;}</style></defs><title>01Silver_l</title><path class="cls-1" d="M18,12A17,17,0,0,0,2.08,34.92L23.92,13.08A16.85,16.85,0,0,0,18,12Z"/><path class="cls-2" d="M23.92,13.08,2.08,34.92A17,17,0,1,0,23.92,13.08Z"/><path class="cls-3" d="M26.11,13l7.34-3.67a1,1,0,0,0,.55-.9V0H24V12.05a17.67,17.67,0,0,0-12,0V0H2V8.38a1,1,0,0,0,.55.9L9.89,13a18,18,0,1,0,16.22,0ZM18,44A15,15,0,1,1,33,29,15,15,0,0,1,18,44Z"/><path class="cls-3" d="M19.32,27.34a20.08,20.08,0,0,1-2.61-1,1.79,1.79,0,0,1-1.11-1.63,2.33,2.33,0,0,1,2.52-2.16,4.49,4.49,0,0,1,3.41,1.65l2.3-2.66a7.91,7.91,0,0,0-5.73-2.35c-3.63,0-6.34,2.35-6.34,5.52,0,2.76,1.63,4.39,5.69,5.66a9.46,9.46,0,0,1,2.28.87,2,2,0,0,1,1.15,2c0,1.39-1.13,2.25-2.93,2.25a5.7,5.7,0,0,1-4.32-2.32l-2.25,2.49a8.25,8.25,0,0,0,6.55,3.19c4,0,6.77-2.32,6.77-5.64C24.7,30.36,23.11,28.61,19.32,27.34Z"/><path class="cls-4" d="M18,11a17.81,17.81,0,0,1,6,1.05V0H12V12.05A17.81,17.81,0,0,1,18,11Z"/></svg>